<?xml version="1.0" encoding="UTF-8"?>
<svg width="92px" height="92px" viewBox="0 0 92 92" version="1.1" xmlns="http://www.w3.org/2000/svg" xmlns:xlink="http://www.w3.org/1999/xlink">
    <!-- Generator: Sketch 52.2 (67145) - http://www.bohemiancoding.com/sketch -->
    <title>icon/首页/云产品</title>
    <desc>Created with Sketch.</desc>
    <g id="icon/首页/云产品" stroke="none" stroke-width="1" fill="none" fill-rule="evenodd">
        <g id="Group-17" transform="translate(13.000000, 5.000000)" stroke="#3C4463" stroke-width="3">
            <g id="Group-7" transform="translate(0.000000, 6.144800)">
                <polygon id="Stroke-1" points="33.1844 40.9232 0.8514 20.9172 33.1844 0.9122 65.5174 20.9172"></polygon>
                <polyline id="Stroke-3" points="7.5741 32.3285 0.8511 36.4885 33.1841 56.4935 65.5171 36.4885 58.7951 32.3285"></polyline>
                <polyline id="Stroke-5" points="7.5741 50.0707 0.8511 54.2307 33.1841 74.2367 65.5171 54.2307 58.7951 50.0707"></polyline>
            </g>
            <path d="M21.8514,7.3332 L21.8514,30.0002" id="Stroke-8"></path>
            <path d="M21.8514,55.6266 L21.8514,68.2976" id="Stroke-9"></path>
            <path d="M45.1844,0.0002 L45.1844,20.1772" id="Stroke-10"></path>
            <path d="M45.1844,55.2135 L45.1844,61.9625" id="Stroke-12"></path>
            <path d="M35.6844,16.1667 L35.6844,37.5287" id="Stroke-13"></path>
            <path d="M35.6844,45.3332 L35.6844,53.9082" id="Stroke-14"></path>
            <path d="M21.8514,72.8337 L21.8514,79.4167" id="Stroke-15"></path>
        </g>
    </g>
</svg>